<?xml version="1.0" encoding="UTF-8" standalone="no"?>
<!-- Created with Inkscape (http://www.inkscape.org/) -->

<svg
   xmlns:dc="http://purl.org/dc/elements/1.1/"
   xmlns:cc="http://creativecommons.org/ns#"
   xmlns:rdf="http://www.w3.org/1999/02/22-rdf-syntax-ns#"
   xmlns:svg="http://www.w3.org/2000/svg"
   xmlns="http://www.w3.org/2000/svg"
   xmlns:xlink="http://www.w3.org/1999/xlink"
   xmlns:sodipodi="http://sodipodi.sourceforge.net/DTD/sodipodi-0.dtd"
   xmlns:inkscape="http://www.inkscape.org/namespaces/inkscape"
   width="80"
   height="80"
   id="svg2"
   version="1.1"
   inkscape:version="0.47 r22583"
   sodipodi:docname="purpleground.svg">
  <defs
     id="defs4">
    <linearGradient
       id="linearGradient3600">
      <stop
         style="stop-color:#ffffff;stop-opacity:0;"
         offset="0"
         id="stop3602" />
      <stop
         id="stop3612"
         offset="0.26666668"
         style="stop-color:#ffffff;stop-opacity:0;" />
      <stop
         id="stop3610"
         offset="0.56"
         style="stop-color:#ffffff;stop-opacity:0.48800001;" />
      <stop
         style="stop-color:#ffffff;stop-opacity:1;"
         offset="1"
         id="stop3604" />
    </linearGradient>
    <linearGradient
       id="linearGradient3590">
      <stop
         style="stop-color:#bf17bf;stop-opacity:1;"
         offset="0"
         id="stop3592" />
      <stop
         style="stop-color:#460046;stop-opacity:1;"
         offset="1"
         id="stop3594" />
    </linearGradient>
    <inkscape:perspective
       sodipodi:type="inkscape:persp3d"
       inkscape:vp_x="0 : 526.18109 : 1"
       inkscape:vp_y="0 : 1000 : 0"
       inkscape:vp_z="744.09448 : 526.18109 : 1"
       inkscape:persp3d-origin="372.04724 : 350.78739 : 1"
       id="perspective10" />
    <linearGradient
       inkscape:collect="always"
       xlink:href="#linearGradient3590"
       id="linearGradient3596"
       x1="40"
       y1="1052.3622"
       x2="40"
       y2="972.36218"
       gradientUnits="userSpaceOnUse" />
    <radialGradient
       inkscape:collect="always"
       xlink:href="#linearGradient3600"
       id="radialGradient3608"
       cx="4.2442436"
       cy="10.41795"
       fx="4.2442436"
       fy="10.41795"
       r="46.529804"
       gradientTransform="matrix(1,0,0,0.99630053,0,0.03854091)"
       gradientUnits="userSpaceOnUse" />
    <linearGradient
       inkscape:collect="always"
       xlink:href="#linearGradient3590"
       id="linearGradient3641"
       gradientUnits="userSpaceOnUse"
       x1="40"
       y1="1052.3622"
       x2="40"
       y2="972.36218" />
    <radialGradient
       inkscape:collect="always"
       xlink:href="#linearGradient3600"
       id="radialGradient3643"
       gradientUnits="userSpaceOnUse"
       gradientTransform="matrix(1,0,0,0.99630053,0,0.03854091)"
       cx="4.2442436"
       cy="10.41795"
       fx="4.2442436"
       fy="10.41795"
       r="46.529804" />
  </defs>
  <sodipodi:namedview
     id="base"
     pagecolor="#ffffff"
     bordercolor="#666666"
     borderopacity="1.0"
     inkscape:pageopacity="0.0"
     inkscape:pageshadow="2"
     inkscape:zoom="1.4"
     inkscape:cx="3.8993481"
     inkscape:cy="27.381046"
     inkscape:document-units="px"
     inkscape:current-layer="layer1"
     showgrid="false"
     inkscape:window-width="782"
     inkscape:window-height="578"
     inkscape:window-x="437"
     inkscape:window-y="109"
     inkscape:window-maximized="0" />
  <metadata
     id="metadata7">
    <rdf:RDF>
      <cc:Work
         rdf:about="">
        <dc:format>image/svg+xml</dc:format>
        <dc:type
           rdf:resource="http://purl.org/dc/dcmitype/StillImage" />
        <dc:title></dc:title>
      </cc:Work>
    </rdf:RDF>
  </metadata>
  <g
     inkscape:label="Layer 1"
     inkscape:groupmode="layer"
     id="layer1"
     transform="translate(0,-972.36218)">
    <rect
       style="fill:url(#linearGradient3641);fill-opacity:1;stroke:none"
       id="rect2816"
       width="80"
       height="80"
       x="0"
       y="972.36218" />
    <path
       sodipodi:type="star"
       style="fill:url(#radialGradient3643);fill-opacity:1;stroke:none"
       id="path3598"
       sodipodi:sides="350"
       sodipodi:cx="4.2857141"
       sodipodi:cy="10.357143"
       sodipodi:r1="45.973042"
       sodipodi:r2="13.791913"
       sodipodi:arg1="0.76342368"
       sodipodi:arg2="0.77239966"
       inkscape:flatsided="false"
       inkscape:rounded="0"
       inkscape:randomized="0.015"
       d="M 38.171392,41.899684 14.783401,19.683835 37.184294,42.915801 13.452897,20.39017 36.051129,43.698458 13.126613,20.057967 36.165328,43.726626 13.408151,19.81854 34.8304,44.123981 14.008713,20.108141 34.668917,44.814512 13.004011,20.784919 33.603769,45.404829 13.153863,21.662547 33.314614,46.073715 13.076343,21.42891 32.743108,46.007671 12.016024,20.761646 32.607251,47.537779 12.865956,21.149295 31.910753,47.720941 12.11231,21.737594 30.589119,48.375932 12.512134,21.18087 29.369148,48.016133 11.381462,21.494852 28.565968,48.387596 11.949549,22.184709 27.992281,49.835622 11.821309,22.224196 28.194845,49.557209 10.634976,22.605908 27.646016,50.569336 11.509438,22.370731 25.812143,51.049877 10.779391,22.369466 25.58787,51.227246 10.446401,21.934135 25.308155,51.317782 10.793803,22.141845 24.500965,51.391583 10.083463,22.691589 23.166585,51.753953 9.3711436,22.626467 22.760194,53.007797 9.1935249,23.243177 21.901447,52.428189 9.5592294,23.386754 20.516214,53.363304 9.7015174,23.730436 20.604795,53.494055 9.0710923,22.701188 19.769599,54.004017 8.9870076,23.889973 19.105295,54.465158 8.8270136,23.674418 17.443299,54.210617 8.5168569,22.949816 17.404843,54.577234 7.5100372,24.213582 16.991549,55.244684 8.4276332,23.438562 15.934384,55.065298 7.7417536,24.276226 14.992288,54.483721 7.0547207,23.119541 13.674704,55.462815 7.6714077,24.543248 13.584095,55.469278 6.8335322,24.562467 13.119894,55.470833 7.2995772,23.329893 11.124806,55.878845 5.6917528,24.357414 10.357475,55.314077 6.0074477,24.453366 9.3646227,55.898287 6.3238788,24.053216 9.6000537,55.509641 5.1847217,23.508559 8.3070698,55.646446 5.4256283,23.694263 7.0124098,56.083506 5.5917161,23.85459 6.1141906,55.655865 4.3768054,24.506973 5.9745312,56.281961 4.5422193,24.66322 5.7581991,56.299822 4.6330534,24.794077 4.1635256,55.663257 4.7980901,24.793519 4.0220023,55.658051 3.5838666,24.024964 3.0491795,56.180422 3.7488452,23.867604 1.5285668,56.775619 3.9153338,24.440587 1.4633877,55.821092 2.7014041,24.279146 0.09406144,55.650673 2.8669155,24.728913 -0.44025043,55.638712 3.182856,24.271115 -1.5099248,56.009495 2.1186166,24.458105 -1.8814364,55.270045 2.4354978,24.148994 -2.7233786,55.359295 2.2793012,23.328431 -3.2658805,55.536887 1.2925546,23.499216 -5.0351545,56.028037 1.8344257,24.175249 -5.126671,55.261998 1.0722812,23.493483 -5.6861522,55.443996 0.38534595,23.906894 -6.7034361,55.080171 1.1529331,24.341733 -7.3442081,54.181501 0.61671526,23.266115 -9.1388995,54.300397 -0.3905936,23.330214 -9.7983026,54.366253 -0.62706174,23.570723 -10.765759,53.933258 -0.10400171,23.525115 -10.671726,53.116219 -0.18776535,23.469692 -12.265853,53.060543 -0.7436917,23.361168 -12.723639,53.257586 -0.60287132,22.487153 -14.109403,53.437797 -1.689556,23.616973 -13.590121,51.784898 -1.7932633,22.385704 -15.376099,51.61371 -1.1270269,22.591089 -15.25794,52.401573 -1.7624276,22.784629 -17.090058,52.053923 -1.4889626,22.89169 -17.29629,50.521966 -1.7488031,22.127434 -18.354677,51.14233 -2.4802468,22.536818 -18.051717,49.941189 -2.3642227,22.346817 -19.210008,50.304939 -2.7925945,22.813096 -20.537222,48.715181 -2.9942883,21.782542 -21.037609,49.490793 -3.730317,21.446336 -20.934044,49.037554 -3.4826446,21.660514 -21.608245,47.728161 -3.0838642,21.001451 -22.811478,47.627108 -3.838706,21.790389 -23.980741,47.227746 -4.292188,21.719301 -23.851299,47.167818 -4.0491894,21.069622 -24.969569,45.367957 -4.0512364,20.983683 -25.335246,45.331527 -5.2824457,21.4375 -26.251568,44.903335 -4.9071392,20.853038 -26.414892,44.859727 -5.6851475,19.879553 -27.055528,43.562953 -4.8593598,20.387986 -27.489282,42.848308 -5.6575089,20.081231 -27.927736,43.263604 -5.6086352,20.588565 -29.536742,42.695934 -5.4079836,20.223223 -30.170132,41.6987 -6.2115478,20.126666 -29.899236,41.252995 -6.0305879,19.049317 -30.799721,40.01118 -6.381556,18.939 -31.480922,39.204357 -6.9783616,19.273889 -31.805264,38.874995 -6.6534721,18.301424 -32.398022,37.96574 -6.797329,18.928341 -32.29423,37.4292 -7.3242546,18.731903 -32.515603,37.492106 -6.8662881,18.013176 -33.137733,36.172463 -7.4107605,17.377453 -33.476533,36.226661 -7.5812742,17.965699 -34.067065,34.945436 -7.5994197,17.987377 -35.057931,34.887996 -7.2406588,16.865778 -34.995404,34.23819 -7.9613537,17.710959 -35.878025,32.370574 -8.3794117,16.776417 -36.539643,32.624955 -8.4232815,17.218895 -36.598339,30.771049 -8.238811,16.471688 -37.077977,31.265986 -7.6800558,15.875162 -37.808357,29.506055 -8.7442606,16.149344 -38.105493,29.168727 -8.9392635,16.115013 -38.65321,28.877264 -8.7053792,15.352832 -38.830408,27.229185 -8.8653099,15.295745 -39.120575,27.048918 -8.0299095,14.602619 -39.112997,26.068861 -8.7429391,15.569862 -39.829179,25.850279 -9.2287479,14.155088 -38.868199,25.137828 -9.3386517,14.0845 -40.158677,24.066898 -8.5274248,14.426203 -39.48579,23.359908 -9.3389002,14.260092 -39.746602,21.934641 -8.3951874,14.211916 -40.87799,21.955419 -8.5289555,13.950589 -40.806904,20.241759 -9.6658561,13.960062 -40.909592,20.096017 -9.6684168,13.342885 -41.33614,18.594236 -8.6753988,12.243144 -41.030783,17.690906 -8.6840228,13.065485 -41.049143,17.116673 -9.0118046,12.624828 -41.093772,16.659751 -9.7216947,12.126409 -41.439347,15.527694 -9.3715285,11.744341 -41.074127,14.739852 -9.3291216,11.788543 -41.0339,14.163015 -9.6058104,10.722773 -41.094126,13.373384 -9.5063097,11.460415 -41.329181,12.808411 -8.9562411,10.653268 -42.285561,11.286357 -8.9370071,10.815919 -42.110465,11.003956 -9.088105,10.068316 -42.037171,10.543388 -8.8630242,9.5925397 -42.213007,8.4454766 -8.9569779,9.6918832 -41.110063,8.894748 -9.4330417,9.42884 -42.256315,7.2678117 -9.5328668,9.8959961 -42.123766,7.1148197 -9.1821515,8.666211 -40.785389,6.3866976 -9.2248835,8.4490499 -41.623335,5.4797926 -9.6496821,8.3279524 -40.635998,4.7766687 -8.9414489,7.7679876 -41.823581,2.9406662 -9.9187451,7.9072637 -40.502019,2.6859533 -9.9103153,7.8329999 -41.206778,1.0401532 -9.4513609,7.7468822 -40.235074,1.3898216 -8.6162925,8.086175 -39.984951,-0.28765862 -9.6169104,6.5062287 -39.985618,-0.04381824 -9.5575138,6.7288304 -40.235737,-2.0495371 -9.047661,6.9398899 -39.901342,-2.3087819 -9.6167078,6.9736513 -39.742164,-2.6485863 -9.050009,5.5810586 -39.759697,-3.1878411 -8.9399081,6.4071858 -38.720695,-4.9611685 -8.4537927,5.2063017 -39.312133,-4.9643525 -8.9723218,5.844199 -39.245017,-6.109942 -8.5039091,5.1620682 -38.198822,-6.6053453 -8.3434988,5.2137432 -38.63316,-7.6169867 -8.5038402,4.649252 -38.087201,-7.8588034 -8.2869134,4.7829392 -37.03321,-9.2551626 -8.5267634,4.5301953 -36.987847,-10.163478 -7.7083163,4.7352733 -36.434702,-10.999374 -7.9662013,3.9283927 -36.280836,-11.985542 -7.9241247,3.097813 -35.546456,-12.075959 -7.5049342,3.1184802 -36.042847,-12.241511 -8.0906991,3.752172 -34.654167,-13.679334 -6.9959647,3.4077494 -34.970061,-14.171787 -7.0521532,2.4889019 -34.306729,-14.966069 -6.8085597,3.0786015 -33.136451,-15.075476 -7.5686486,1.7950706 -33.250685,-16.713957 -7.3422711,2.2563012 -32.955337,-17.451659 -6.1953637,2.06 -31.608389,-17.667456 -6.0522556,1.5225652 -31.089532,-18.384236 -6.3034343,1.231747 -31.239303,-19.513732 -5.6328096,1.7819239 -31.243535,-19.150707 -6.7357636,1.19965 -29.660111,-20.342235 -6.1586868,1.0190974 -29.782888,-20.89168 -6.0391096,0.60595175 -29.078069,-20.990419 -6.239772,0.77088764 -28.922233,-22.084578 -4.9092464,0.21726385 -27.864794,-21.938352 -4.6587107,-0.05355199 -26.525473,-22.861837 -5.4854273,-0.10863382 -26.495385,-24.0018 -5.5394134,-0.13729131 -26.406812,-23.677867 -4.5375505,0.3268297 -25.416037,-25.057479 -4.6859828,-0.43165173 -24.294223,-25.681887 -3.7772458,-0.42539419 -24.556795,-25.779466 -3.5481656,-1.0626532 -23.992087,-26.532053 -4.3251222,-0.62744281 -22.065079,-26.456481 -3.5700784,-1.2493065 -22.14395,-27.672181 -3.9699244,-0.84529292 -21.471931,-27.38705 -3.4601582,-0.52490061 -20.122219,-27.80299 -3.4830885,-1.0729602 -19.472761,-28.495286 -3.2061676,-1.3711811 -19.676745,-29.715211 -2.1685157,-1.4941591 -19.202245,-29.83202 -2.9686037,-1.8488788 -17.292646,-29.862253 -2.8594626,-1.2132394 -17.689277,-30.784438 -1.9041914,-1.5985582 -16.788635,-31.356638 -1.4932855,-2.3983747 -14.956754,-31.571376 -1.6155605,-2.6871744 -15.002984,-32.052891 -0.83030953,-2.104615 -14.595174,-31.808398 -0.72564474,-2.0122819 -13.639364,-31.444255 -0.94406624,-2.3810285 -12.875014,-32.971476 -1.1592639,-3.0894379 -12.417085,-33.299415 -0.6046095,-2.8159198 -11.508936,-33.139228 -0.52052478,-2.6255133 -10.844632,-33.60037 0.26177197,-3.0778971 -9.1826129,-33.193117 0.64627992,-3.0959026 -9.1442014,-33.865157 1.0322163,-3.5725835 -7.4246261,-33.518142 0.80983263,-3.1007752 -7.4679237,-33.953549 1.3470097,-2.4532245 -6.4500562,-33.995433 0.72924704,-3.1129167 -5.2082438,-34.351066 1.4917291,-3.3101431 -4.9689319,-34.463553 2.3295824,-3.4820728 -4.5776628,-34.982546 1.8621179,-3.747836 -2.5825748,-35.390557 2.8504786,-3.8691268 -1.8152441,-34.825789 2.5333642,-2.7050329 -0.82239129,-35.409999 2.7649289,-3.3039841 -1.0592418,-35.140499 2.5234532,-3.031184 0.78029632,-35.169071 3.7375307,-3.6876386 1.5284243,-35.561654 3.5714207,-4.0006766 1.6683355,-35.921098 3.4057207,-3.3930145 3.1886056,-35.048857 4.5451468,-2.8066532 3.329167,-35.822447 4.4543348,-2.7847995 4.9238626,-35.033172 4.2892982,-2.7842423 4.5188317,-35.136198 4.1986817,-2.7582946 6.1139573,-34.947317 5.4128943,-3.9801256 6.2539371,-35.814371 5.247803,-3.2074824 7.6240005,-35.191007 5.0082124,-3.5299143 9.0676559,-35.915906 6.2204727,-2.7196356 8.9081084,-35.939719 5.9802808,-3.0380097 9.4312507,-34.886833 5.6639095,-3.3441459 10.349339,-35.26563 6.6532877,-3.5524731 11.191259,-35.507591 6.2615107,-2.9592893 13.111532,-34.425138 7.2496768,-3.0109283 13.577386,-34.160558 7.254382,-3.4260177 13.741834,-34.256273 6.7116865,-3.4868585 14.98525,-34.44048 7.3986218,-2.5210788 15.244248,-34.711029 7.9358746,-3.5925008 16.98546,-33.350277 8.5464215,-3.4122019 17.399585,-33.282898 8.9328028,-2.9946366 17.984615,-34.138049 8.4853807,-2.9275145 19.026422,-33.068469 8.6448136,-3.1559732 20.238649,-32.768868 8.7299745,-3.1341153 20.526517,-32.195754 8.6650176,-2.2385059 20.911393,-32.757524 9.0693541,-2.6018843 22.297135,-31.711255 10.157436,-2.3860775 22.586381,-32.03936 9.7145671,-2.7949446 22.994565,-31.901736 9.6678388,-2.2219471 24.254178,-31.429554 10.304659,-2.2963411 25.609556,-30.866298 9.9568649,-1.5080844 25.814412,-30.527257 10.216683,-2.2757303 26.798427,-30.557724 10.946707,-1.4250689 26.496908,-29.084727 10.905035,-1.977675 27.729528,-28.964603 11.333406,-1.0647627 28.980971,-28.130575 11.462146,-0.70435787 29.55571,-28.269604 12.198197,-1.5946326 29.453541,-27.849929 12.024898,-1.0195156 30.052016,-26.990844 11.624676,-0.63230885 31.353709,-27.13882 12.305167,-0.67863949 32.597324,-26.102874 12.213514,-0.59663918 32.11336,-26.336594 12.515672,0.19483788 33.231629,-25.915924 12.59349,-0.34268479 33.595909,-24.466739 13.823258,0.31083314 34.513674,-23.76669 13.450812,-0.09289383 34.602646,-24.359665 14.228798,0.72788064 35.317589,-22.731729 13.327262,0.99561971 35.825716,-22.606981 14.125411,-0.07681605 37.641942,-21.762232 14.226659,0.80816319 37.724474,-20.969392 13.951612,0.2314996 38.430818,-20.6812 14.755221,0.63347784 38.1599,-20.388206 14.574239,1.5581168 39.820113,-19.619352 14.850878,1.1845603 39.741586,-18.339568 15.447661,2.0761517 40.140301,-18.600103 15.197123,2.3060093 40.319348,-18.222269 15.34098,1.6790922 40.76069,-16.317451 15.866486,1.7563846 42.362652,-16.413921 15.33419,1.991239 41.657252,-16.211318 15.880082,2.7461079 43.300893,-15.522909 16.199298,3.4310288 42.586607,-14.831581 16.0673,3.2435182 43.576053,-13.514096 16.262447,3.492485 43.513504,-13.017 15.602531,3.9073497 43.776661,-11.622345 16.568541,3.5373693 44.98479,-12.073914 16.686784,3.8841851 45.13915,-10.401908 16.427962,3.994809 45.620187,-9.5512179 17.246979,4.472189 46.35061,-8.8650566 16.38688,4.3616297 46.647747,-8.5277291 17.149707,4.7594809 46.574514,-7.9073127 16.991593,4.8982004 47.37122,-6.8600431 17.151524,4.9552875 47.040481,-6.0454021 17.619544,4.892684 47.5809,-6.0644462 17.103482,5.1650431 47.749063,-4.9994737 17.514962,6.0959443 48.435123,-3.4112859 17.003961,6.8009064 48.345011,-3.6859826 18.117082,6.601002 49.052691,-1.7860771 17.623695,7.2509859 49.313503,-1.740001 18.060571,7.2655973 49.065744,-0.07616608 18.194383,7.8323454 49.068987,0.74217542 17.877741,7.1862884 49.171697,1.0406286 17.880302,7.8034653 49.523872,1.7531151 18.265034,7.2521585 49.292844,3.1403181 18.348031,8.5983032 49.236853,3.0779675 17.296577,8.7335396 49.355877,4.476894 18.006512,8.1581885 49.649791,5.3468002 17.581972,9.1301535 49.360341,5.5111804 17.613938,8.4960546 50.699284,7.3144978 17.817673,8.8916754 50.68518,7.6202556 17.718173,9.533225 49.539625,8.0660832 18.000763,10.384849 50.570378,8.9982403 18.528061,10.177721 49.775773,9.8814507 18.679181,9.6988439 49.702502,10.494729 18.52843,10.658493 50.499244,11.958267 18.001478,11.193523 50.774049,12.61633 17.644882,11.412089 50.466736,13.453972 17.74473,11.097644 l 32.58948,2.66203 -32.791471,-2.764749 32.908078,4.401312 -33.014071,-4.230838 31.851898,4.240215 -31.427099,-2.739926 32.342795,4.403331 -31.673256,-5.341704 31.556,5.055908 -31.883522,-4.405889 31.866821,5.55592 -31.949646,-5.044471 30.802989,5.68672 -31.261922,-5.447891 32.141634,6.101774 -32.142645,-6.430154 31.96683,8.438796 -31.724476,-7.340514 30.344554,7.130239 -30.403973,-7.505551 30.652695,8.165643 -31.162526,-8.223992 30.828109,9.709718 -30.260481,-8.483434 30.86103,9.729469 L 18.09309,15.185202 47.473807,23.944396 17.226122,15.223038 47.262948,25.602167 16.665678,14.560858 47.778594,26.076102 17.257139,15.81959 47.787248,26.59823 16.714353,15.712426 46.666702,27.83624 16.55534,15.627186 45.869154,28.775423 16.788635,15.482635 46.627991,29.454426 17.383031,16.059197 45.499648,30.214201 16.864639,15.982988 45.528659,30.532619 15.970399,16.248661 44.976933,31.487661 16.229726,17.327398 44.726027,32.842004 16.111879,17.402248 44.064578,33.449859 15.694108,17.500727 44.488038,33.097973 16.35418,17.198198 43.099313,34.230375 15.538218,17.233249 43.413832,34.909103 15.595804,18.118532 42.824829,36.187259 15.350791,17.409686 41.654573,36.449376 16.11088,18.693217 41.792916,37.202244 15.265039,19.138217 41.497568,37.939947 14.664641,19.13733 40.149201,38.036598 14.595906,19.084868 40.656455,38.731587 14.847107,19.528397 40.259695,39.90556 14.17646,18.82551 39.505618,40.134641 15.205041,19.99768 39.227056,40.842297 14.081432,20.22271 37.424066,41.130797 14.582783,20.154193 38.171392,41.899684 z"
       transform="matrix(1.3612527,0,0,1.3806597,34.701774,999.49104)" />
  </g>
</svg>
